# Blender v2.78 (sub 0) OBJ File: 'CityScenery.blend'
# www.blender.org
mtllib LampPost_LowPoly.mtl
o Circle.001
v 0.183773 -0.000120 0.023884
v 0.183508 0.818488 0.042216
v 0.183508 0.706081 0.023531
v 0.183508 0.940438 0.066935
v 0.183773 0.985289 0.000000
v 0.159890 -0.000120 -0.000000
v 0.141557 0.818488 -0.000265
v 0.160242 0.706081 -0.000265
v 0.116838 0.940437 -0.000265
v 0.183773 -0.000120 -0.023884
v 0.184038 0.818488 -0.042216
v 0.184038 0.706081 -0.023531
v 0.184038 0.940437 -0.066935
v 0.207657 -0.000120 0.000000
v 0.225990 0.818488 0.000265
v 0.207304 0.706081 0.000265
v 0.250708 0.940437 0.000265
vt 0.5522 0.5283
vt 0.6862 0.3882
vt 0.9799 0.4922
vt 0.8774 0.5865
vt 0.7714 0.2547
vt 0.7626 0.1420
vt 0.9966 0.2503
vt 0.1634 0.8307
vt 0.0955 0.8237
vt 0.0875 0.0001
vt 0.1538 0.0002
vt 0.1173 0.9802
vt 0.0125 0.9589
vt 0.6939 0.9739
vt 0.5450 0.8324
vt 0.8815 0.7729
vt 0.9802 0.8599
vt 0.5461 0.2590
vt 0.3689 0.8241
vt 0.3020 0.8308
vt 0.2865 0.0002
vt 0.3552 0.0001
vt 0.4512 0.9648
vt 0.3371 0.9849
vt 0.5001 0.6814
vt 0.8471 0.6806
vt 0.7801 0.3673
vt 0.2329 0.8331
vt 0.2202 0.0002
vt 0.2258 0.9889
vn 0.9496 0.3133 0.0041
vn -0.0041 0.3133 0.9496
vn -0.0063 -0.1828 0.9831
vn 0.9831 -0.1828 0.0063
vn 0.0000 1.0000 0.0000
vn 0.9963 -0.0852 0.0073
vn -0.0073 -0.0852 0.9963
vn -0.0054 0.0005 1.0000
vn 1.0000 0.0005 0.0054
vn -0.9496 0.3133 -0.0041
vn -0.9831 -0.1828 -0.0063
vn -0.9963 -0.0852 -0.0073
vn -1.0000 0.0005 -0.0054
vn 0.0041 0.3133 -0.9496
vn 0.0063 -0.1828 -0.9831
vn 0.0073 -0.0852 -0.9963
vn 0.0054 0.0005 -1.0000
usemtl Material.006
s 1
f 17/1/1 4/2/2 2/3/3 15/4/4
f 5/5/5 4/6/2 17/7/1
f 16/8/6 3/9/7 1/10/8 14/11/9
f 15/12/4 2/13/3 3/9/7 16/8/6
f 4/14/2 9/15/10 7/16/11 2/17/3
f 5/5/5 9/18/10 4/6/2
f 3/19/7 8/20/12 6/21/13 1/22/8
f 2/23/3 7/24/11 8/20/12 3/19/7
f 9/15/10 13/25/14 11/26/15 7/16/11
f 5/5/5 13/27/14 9/18/10
f 8/20/12 12/28/16 10/29/17 6/21/13
f 7/24/11 11/30/15 12/28/16 8/20/12
f 13/25/14 17/1/1 15/4/4 11/26/15
f 5/5/5 17/7/1 13/27/14
f 12/28/16 16/8/6 14/11/9 10/29/17
f 11/30/15 15/12/4 16/8/6 12/28/16
